<?xml version="1.0" encoding="UTF-8"?>
<svg data-bbox="0 0 15.64 15.64" viewBox="0 0 15.64 15.64" xmlns="http://www.w3.org/2000/svg" data-type="color">
    <g>
        <path d="M15.64 0v15.64H0V0z" fill="#000000" data-color="1"/>
        <path d="M11.31 5.24c.03.13-.28.29-.57.48 0 0-.97.68-1.63 1.58-.32.43-.47.8-.62 1.18-.62 1.5-.55 2.7-.7 2.7V7.62s.03-.41.23-.92c.05-.13.1-.26.21-.4.22-.31.54-.54.54-.54.1-.06.2-.12.19-.16l2.36-.36Z" fill="#ffffff" data-color="2"/>
        <path d="M8.33 5.47c.3.16.6.05.62.12-.2.11-.59.28-1.11.29H7.8v-1c.06 0 .08.09.13.18.12.23.32.36.4.4Z" fill="#ffffff" data-color="2"/>
        <path d="m7.85 3.17-.04 1.72c-.06 0-.1.09-.16.19 0 0-.15.24-.38.39-.29.19-.62.07-.64.13l-2.36-.36c.04-.2 1.04.15 1.92-.39.69-.43 1.16-1.13 1.16-1.13.19-.28.32-.56.5-.55" fill="#ffffff" data-color="2"/>
        <path d="M7.8 5.89v1.73c-.06 0-.04-.4-.24-.92-.09-.21-.17-.35-.19-.39-.12-.19-.26-.41-.51-.57-.14-.09-.23-.12-.23-.15.2.1.62.29 1.18.29Z" fill="#ffffff" data-color="2"/>
        <path d="M7.79 11.24c-.11 0-.13-.14-.18-.51-.07-.48-.19-1.29-.58-2.23a6.5 6.5 0 0 0-.58-1.12c-.36-.55-.77-1.18-1.54-1.64a3 3 0 0 0-.38-.21c-.23-.12-.35-.18-.33-.3.02-.13.18-.12.45-.12.38 0 .96.02 1.5-.31.67-.42 1.14-1.1 1.14-1.11.04-.05.07-.11.1-.16.14-.23.27-.43.45-.42.16.01.24.18.33.38.03.06.06.12.09.19.36.68 1 1.05 1.18 1.15.52.27 1.06.27 1.42.27.28 0 .46 0 .49.13.04.15-.18.28-.45.45-.05.03-.1.06-.15.1 0 0-.97.68-1.61 1.57-.31.43-.46.79-.62 1.17-.38.93-.5 1.74-.57 2.22-.06.38-.08.52-.18.52ZM4.54 5.23c-.1 0-.19 0-.21.02 0 .03.15.1.27.16.11.06.24.12.39.21.79.48 1.21 1.12 1.58 1.68.12.18.36.57.59 1.14.39.96.51 1.77.58 2.26.02.14.04.28.06.35.02-.08.04-.22.06-.37.07-.49.19-1.31.58-2.25.15-.37.31-.75.63-1.19.65-.9 1.63-1.59 1.64-1.6.05-.03.11-.07.16-.1.16-.1.41-.25.39-.32-.01-.04-.21-.04-.38-.04-.37 0-.92 0-1.48-.28-.2-.1-.86-.49-1.24-1.2-.04-.07-.07-.13-.09-.19-.08-.17-.14-.3-.23-.31-.11 0-.21.16-.33.36-.03.05-.07.11-.11.17-.02.03-.48.72-1.18 1.15-.57.35-1.19.34-1.57.33h-.12Z" fill="#ffffff" data-color="2"/>
        <path fill="#ffffff" d="M7.81 11.18h-.04V7.62l.02-2.73.04-1.72h.04l-.04 1.72-.02 2.73z" data-color="2"/>
        <path d="M7.79 5.91c-.51 0-.92-.16-1.17-.29l-2.35-.35v-.03l2.37.36c.25.13.65.29 1.16.29h.05c.38 0 .77-.11 1.11-.29.77-.12 1.54-.23 2.3-.35h.05v.03h-.05c-.77.12-1.53.24-2.3.35-.34.18-.73.28-1.12.29h-.05Z" fill="#ffffff" data-color="2"/>
        <path d="M11.5 11.27q-.705 0-1.2-.15c-.495-.15-.59-.24-.8-.42a1.7 1.7 0 0 1-.46-.61c-.09-.23-.14-.48-.14-.75 0-.34.07-.68.21-1.03s.35-.66.63-.94.63-.5 1.06-.68c.43-.17.92-.26 1.5-.26.3 0 .58.02.86.07.28.04.55.1.82.18q-.03.21-.03.42c0 .1 0 .2.01.29 0 .09.02.18.03.26-.05.04-.13.06-.23.06-.12 0-.2-.05-.21-.14a.95.95 0 0 0-.46-.64 1.9 1.9 0 0 0-.85-.19c-.35 0-.67.07-.94.21-.28.14-.51.32-.7.55s-.34.5-.44.81-.15.63-.15.98c0 .25.04.48.11.69s.18.38.31.53c.14.15.3.26.5.34s.41.12.65.12c.34 0 .63-.07.87-.2s.44-.35.6-.65c.03-.04.06-.08.09-.1s.09-.03.16-.03c.06 0 .11.01.16.03s.09.04.1.05c-.07.12-.15.28-.22.46s-.14.38-.19.6c-.14.02-.28.05-.44.06-.16.02-.31.04-.46.05s-.3.03-.43.03-.25.01-.34.01Z" fill="#ffffff" data-color="2"/>
        <path d="M11.5 11.29c-.47 0-.88-.05-1.2-.15q-.495-.15-.81-.42c-.21-.18-.37-.39-.46-.62s-.14-.49-.14-.76c0-.34.07-.69.21-1.04s.36-.67.64-.94c.28-.28.64-.51 1.07-.68s.93-.26 1.51-.26c.29 0 .59.02.86.07.28.04.55.1.82.18h.02v.03c-.02.14-.03.28-.03.41 0 .1 0 .2.01.28 0 .09.02.18.03.26s-.01.02-.01.02c-.06.05-.14.07-.25.07-.17 0-.23-.09-.24-.17-.07-.29-.22-.5-.45-.62s-.51-.18-.83-.18c-.35 0-.66.07-.93.2-.27.14-.5.32-.69.55s-.33.5-.43.8-.15.63-.15.97c0 .25.04.48.11.68s.18.37.31.52c.13.14.3.25.49.33s.41.12.64.12c.33 0 .62-.07.86-.2.23-.13.43-.35.59-.64.03-.05.07-.08.1-.11a.47.47 0 0 1 .46.05h.02l-.01.03c-.07.12-.15.28-.22.46s-.14.38-.19.59v.02h-.02c-.14.02-.28.05-.44.06-.16.02-.32.04-.46.05-.15.01-.3.03-.43.03s-.25.01-.35.01Zm.81-4.83c-.57 0-1.07.09-1.49.26s-.77.4-1.05.67q-.42.405-.63.93-.21.51-.21 1.02c0 .26.05.51.14.74q.135.345.45.6c.21.17.47.31.8.41.32.1.72.15 1.19.15.1 0 .21 0 .34-.01.13 0 .27-.02.43-.03.15-.01.3-.03.46-.05q.225-.03.42-.06c.05-.21.11-.4.18-.58.07-.17.14-.32.21-.44-.02 0-.04-.02-.08-.04a.4.4 0 0 0-.15-.03c-.07 0-.12 0-.15.03q-.045.03-.09.09c-.17.3-.37.53-.61.66-.24.14-.54.2-.88.2q-.36 0-.66-.12c-.2-.08-.37-.2-.51-.34-.14-.15-.25-.33-.32-.54s-.11-.44-.11-.7c0-.34.05-.68.15-.99s.25-.58.44-.82a2.1 2.1 0 0 1 1.66-.77c.33 0 .62.06.86.19q.36.195.48.66c0 .05.04.12.19.12.09 0 .15-.02.2-.05l-.03-.24c0-.09-.01-.19-.01-.29 0-.13 0-.26.02-.4a7 7 0 0 0-.79-.17c-.28-.04-.56-.07-.86-.07Z" fill="#ffffff" data-color="2"/>
        <path d="M3.75 11.29c-.13 0-.28-.02-.43-.03s-.31-.03-.46-.05c-.16-.02-.3-.04-.44-.06-.05-.22-.11-.41-.19-.6-.07-.18-.15-.33-.22-.46.02-.01.05-.03.1-.05s.1-.03.16-.03c.07 0 .13.01.16.03s.07.05.09.1c.16.3.37.52.6.65.24.13.53.2.87.2.24 0 .46-.04.65-.12s.36-.19.5-.34.24-.32.31-.53.11-.43.11-.69c0-.34-.05-.67-.15-.98s-.25-.58-.44-.81-.42-.42-.7-.55c-.28-.14-.59-.21-.94-.21-.33 0-.61.06-.85.19-.24.12-.39.34-.46.64-.02.1-.09.14-.21.14-.1 0-.18-.02-.23-.06l.03-.26c0-.09.01-.19.01-.29 0-.14 0-.28-.03-.42.27-.07.54-.13.82-.18.28-.04.56-.07.86-.07.57 0 1.07.09 1.5.26s.78.4 1.06.68.49.59.63.94.21.69.21 1.03c0 .27-.05.52-.14.75s-.25.44-.46.61c-.21.18-.48.32-.8.42s-.73.15-1.2.15c-.1 0-.21 0-.34-.01Z" fill="#ffffff" data-color="2"/>
        <path d="M4.1 11.32c-.1 0-.21 0-.35-.01-.13 0-.28-.02-.43-.03s-.3-.03-.47-.05l-.44-.06h-.02v-.02c-.05-.21-.11-.41-.19-.59-.07-.18-.15-.33-.22-.46v-.03c.02-.02.05-.03.11-.06.05-.02.11-.03.17-.03.08 0 .14.01.18.04.04.02.07.06.1.1.16.3.36.51.6.64.23.13.52.2.86.2.23 0 .45-.04.64-.12s.36-.19.49-.33.24-.32.31-.52.11-.43.11-.68c0-.34-.05-.66-.15-.97-.1-.3-.25-.57-.43-.8a2.2 2.2 0 0 0-.69-.55c-.27-.14-.58-.2-.93-.2-.32 0-.6.06-.83.18s-.38.33-.45.62c-.01.07-.07.16-.24.16-.11 0-.19-.02-.25-.07h-.01v-.02l.03-.26c0-.09.01-.19.01-.28 0-.14 0-.28-.03-.41v-.02h.02c.27-.07.54-.13.82-.18.28-.04.57-.07.86-.07.57 0 1.08.09 1.51.26.43.18.79.4 1.07.68s.5.6.64.94c.14.35.21.7.21 1.04 0 .27-.05.52-.14.76-.1.24-.25.44-.46.62s-.49.32-.81.42q-.495.15-1.2.15Zm-1.66-.2q.195.03.42.06c.16.02.32.04.46.05.15.01.3.03.43.03s.25.01.34.01c.47 0 .87-.05 1.19-.15s.59-.24.8-.41.36-.38.45-.6c.09-.23.14-.48.14-.74 0-.33-.07-.68-.21-1.02a2.8 2.8 0 0 0-.63-.93c-.28-.27-.63-.5-1.05-.67s-.92-.26-1.49-.26c-.29 0-.58.02-.86.07-.27.04-.54.1-.79.17.02.13.02.27.02.4 0 .1 0 .2-.01.29 0 .08-.02.17-.03.24.05.03.11.05.2.05.15 0 .18-.07.19-.12q.12-.465.48-.66c.24-.13.53-.19.86-.19.35 0 .68.07.95.21.28.14.52.33.71.56s.34.51.44.82q.15.465.15.99c0 .26-.04.49-.11.7s-.18.39-.32.54-.31.26-.51.34q-.3.12-.66.12c-.34 0-.64-.07-.88-.2-.24-.14-.45-.36-.62-.66a.24.24 0 0 0-.08-.09q-.045-.03-.15-.03-.075 0-.15.03l-.08.04c.07.12.14.27.21.44.07.18.13.37.18.58Z" fill="#ffffff" data-color="2"/>
    </g>
</svg>
